<svg xmlns="http://www.w3.org/2000/svg" viewBox="-258 377.9 79 86"><path d="M-228.1 460.5v-5h-3.9v1.7h1.6v1.9c-.3.2-.6.2-1.3.2-1.4 0-2-1.9-2-3.7 0-1.7.3-3.4 2-3.4 1 0 1.3.5 1.6 1.3l1.9-.9c-.3-.9-1.3-2.1-3.4-2.1-2.7 0-4.6 2-4.6 5 0 3.5 1.8 5.6 4.4 5.6 1.5 0 3.2-.2 3.7-.6m5.1-5.4V453c-.5 0-.8 0-1.2.2-.5.3-.8.6-1 1.1l-.1-1.1h-2v7.7h2.1v-4.3c0-.8.2-1.1.6-1.4.5-.3 1-.3 1.6-.1m7.4 1.9c0-2.1-1-4-3.6-4-2.5 0-3.6 1.9-3.6 4s.9 4.1 3.6 4.1 3.6-2 3.6-4.1m-2.2-.1c0 1.6-.4 2.7-1.4 2.7s-1.4-1-1.4-2.7c0-1.5.4-2.5 1.4-2.5.9 0 1.4 1 1.4 2.5zm9.2 3.9v-7.7h-2.1v4.8c0 .8-.5 1.4-1.3 1.4-.5 0-.8-.3-.8-.9v-5.3h-2.2v5.8c0 1.3.7 2.1 2 2.1 1 0 1.6-.3 2.3-.9l.1.7h2m7.7-3.8c0-2-.8-4-3-4-.8 0-1.2.2-1.7.8l-.1-.6h-2v10.2h2.1v-3.1c.4.6.9.8 1.7.8 2.2 0 3-2.1 3-4.1m-2.2-.2c0 1.3-.2 2.6-1.3 2.5-.8 0-1.1-.4-1.1-1.3v-2.3c0-.8.4-1.2 1-1.3 1.1.1 1.4 1.2 1.4 2.4z" fill="#fff"/><path d="M-203.9 403.7l-14.3 24.9h28.7l-14.4-24.9zm-2-3.5l-12.6-21.8-17.8 30.8h25.2l5.2-9zm-32.4 12.5l-9.2 15.9h25.2l9.2-15.9h-25.2z" fill="#bd0a2b"/><path d="M-247.7 442.5l-1.9-7.2h-2.1l-1.8 7.2-1.9-7.2h-2.6l2.8 10.2h2.8l1.5-6.1 1.6 6.1h2.7l2.7-10.2h-2l-1.8 7.2zm17.1.5v-3.6h1.7v-1.5h-1.7V436h-1.2c-.2.6-.3 1-.7 1.5-.4.4-.6.6-1.1.7v1.2h.9v4.5c0 1.5 1.4 1.9 2.4 1.9.7 0 1.1-.2 1.7-.4v-1.5c-.1.1-.3.2-.8.2s-1.2 0-1.2-1.1zm-8.5-5.4c-1 0-1.6.3-2.3.9v-3.9h-2.1v10.8h2.1v-4.8c0-.8.5-1.4 1.3-1.4.5 0 .8.3.8.9v5.3h2.1v-5.7c.1-1.3-.6-2.1-1.9-2.1zm4-2.8c-.6 0-1.1.5-1.1 1.1 0 .6.5 1.1 1.1 1.1.6 0 1.1-.5 1.1-1.1 0-.6-.5-1.1-1.1-1.1zm-1.1 10.7h2.1v-7.7h-2.1v7.7zm22.8-1.6c-1.4 0-1.9-1.9-1.9-3.7 0-1.7.2-3.3 1.9-3.3.9 0 1.4.6 1.5 1.2l2-.8c-.4-1-1.5-2.2-3.6-2.2-2.7 0-4.5 2.1-4.5 5.1 0 3.5 1.8 5.6 4.4 5.6 1.7 0 3.3-.9 3.8-2.5l-2-.7c-.2.7-.6 1.3-1.6 1.3zm27.6-6.1h-2.2l-2.4 2.9v-6h-2.1v10.8h2.1v-2.7l.7-.8 1.6 3.5h2.5l-2.6-5 2.4-2.7zm-8.7 0c-.5.3-.8.6-1 1.1l-.1-1.1h-2v7.7h2.1v-4.3c0-.8.2-1.1.6-1.4.5-.3 1-.3 1.6-.1v-2.1c-.5 0-.8 0-1.2.2zm12.2-.2c-2.7 0-3.8 2-3.8 4.1 0 2 1.3 3.9 3.4 4 1.6 0 2.6-.4 3.4-1.2l-1-1.2c-.5.5-.9.8-1.9.8-.9 0-1.6-.6-1.6-1.8h4.8c.2-1.8-.6-4.7-3.3-4.7zm-1.4 3.4c0-1.1.3-1.8 1.3-1.8s1.1.8 1.1 1.8h-2.4zm-18-3.4c-1.2 0-2.4.4-3 1.1l.8 1.3c.4-.5 1.2-.8 1.9-.8.6 0 1.2.2 1.2.7v.7l-1.6.2c-1.5.2-2.8.9-2.8 2.6 0 1.5 1 2.3 2.2 2.3.9 0 1.5-.4 2.2-.9l.1.7h2v-5.8c.1-1.5-1.2-2.1-3-2.1zm1 5.3c0 .7-.7 1.1-1.4 1.1-.6 0-.8-.2-.8-.8 0-1.1.9-1.3 2.2-1.5v1.2zm-24.3-5.3c-2.7 0-3.8 2-3.8 4.1 0 2 1.3 3.9 3.4 4 1.6 0 2.6-.4 3.4-1.2l-1-1.2c-.5.5-.9.8-1.9.8-.9 0-1.6-.6-1.6-1.8h4.6c.4-1.8-.4-4.7-3.1-4.7zm-1.4 3.4c0-1.1.3-1.8 1.3-1.8s1.1.8 1.1 1.8h-2.4zm20.1 3c-.3-.1-.5-.4-.5-.9v-8.5h-2.1v8.9c0 1.2.6 1.9 1.6 2 .5 0 1.3 0 1.7-.2v-1.4c-.1.2-.5.2-.7.1z" fill="#fff"/></svg>